<?xml version="1.0" encoding="UTF-8"?>
<svg xmlns="http://www.w3.org/2000/svg" version="1.1"
     xml:space="preserve"
     width="27.3mm"
     height="27.3mm"
     style="shape-rendering:geometricPrecision; text-rendering:geometricPrecision; image-rendering:optimizeQuality; fill-rule:evenodd; clip-rule:evenodd"
     viewBox="-246 -293 1400 1400"
>
  <defs>
    <style type="text/css">
      <![CDATA[
    .fil0 {fill:#434242}
    .fil1 {fill:#434242;fill-rule:nonzero}
    .fil2 {fill:#235bcc;stroke:#ffffff;stroke-width:70;stroke-linecap:round;stroke-linejoin:round;paint-order:stroke fill}
   ]]>
    </style>
  </defs>
  <g id="logo">
    <g id="tod_registrar">
      <g id="sign" aria-label="R">
        <path class="fil0" d="M735.9 810.96c7.17,3.81 37.52,2.85 48,2.72l123.13 -0.47c-0.88,-3.6 -0.81,-1.05 -5.69,-7.65l-66.55 -85.27c-7.91,-10.24 -16.33,-20.63 -23.94,-30.74l-18.67 -24.21c-3.19,-4.34 -6.24,-8 -9.58,-12.12 -1.09,-1.35 -1.17,-1.58 -2.14,-2.88l-8.12 -9.15c-2.79,-2.6 -6.07,-7.52 -9,-11.26 -3.33,-4.24 -6.04,-7.74 -9.45,-12.24 -3.32,-4.38 -15.73,-21.62 -19.48,-23.79 -0.1,-0.47 -31.26,-43.15 -35.88,-45.81l-28.98 -38.03c-0.98,-0.91 -0.44,-0.46 -1.61,-1.26 -1.48,-5.52 -27.33,-32.49 -28.42,-38.54 6.69,-0.59 30.78,-5.44 34.15,-8.16 28.84,-6.6 65.83,-37.24 84.17,-59.81 20.67,-25.44 38.24,-57.56 49.56,-94.12 19.25,-62.18 20.42,-152.89 -11.61,-213.67l-9.6 -17.13c-1.65,-2.5 -2.01,-3.66 -4.34,-5.26 -0.56,-2.51 -2.6,-4.72 -4.66,-7.47 -3.88,-5.19 -13.8,-17.62 -18.26,-19.73 -3.79,-6.72 -38.39,-29.87 -52.03,-33.03 -6.1,-5.73 -44.39,-11.08 -56.66,-11.37 -22.47,-0.53 -46.28,-0.61 -68.74,-0.16l-197.88 -0.13c-41.71,0.46 -83.58,-0.16 -125.32,0.03 -43.75,0.2 -70.36,1.58 -106.18,19.15 -28.93,14.2 -54.3,34.22 -71.04,54.56 -4.75,5.77 -8.97,10.83 -13.62,17.25 -10.19,14.05 -30.39,44.87 -34.52,60.57 -1.49,2.38 -0.56,0.98 0.1,1.95 26.69,1.1 56.34,0.02 83.34,-0.07l406.05 -0.32 0.19 0 0.02 0 0.2 0.01 0.2 0 0.2 0 0.2 0.01 0.05 0 0.15 0 0.2 0 0.2 0 0.2 0 0.11 0 0.09 0 0.2 0 0.2 0 0.2 0 0.18 0 0.03 0 0.2 0 0.2 0 0.2 0 0.2 0 0.04 0 0.17 0 0.2 0 0.2 0 0.2 0 0.1 0 0.1 0 0.2 0 0.2 0 0.2 0 0.16 0 0.03 0 0.2 0 0.2 0 0.2 0 0.2 0 0.03 0 0.17 0 0.19 0 0.2 0 0.2 0 0.09 0 0.1 0 0.2 0 0.19 -0 0.19 0 0.15 0 0.04 0 0.19 0 0.19 -0 0.19 0 0.38 -0 0.19 -0 0.19 0 0.19 -0 0.08 0 0.11 -0 0.19 0 0.19 -0 0.19 -0 0.14 0 0.05 0 0.19 -0 0.18 -0 0.19 -0 0.18 -0 0.01 0 0.18 -0 0.18 -0.01 0.18 0 0.18 -0.01 0.06 0 0.12 -0 0.18 -0 0.18 -0.01 0.02 0 0.66 0c21.42,-0.04 60.95,-2.27 78.18,5.67 17.61,8.12 32.39,24.83 33.69,50.27 0.12,24.51 2.47,49.52 -6.79,70.12 -7.74,17.21 -20.26,30.56 -37.4,38.36 -22.28,10.13 -41.04,8.17 -66.85,8.19l-66.01 -0.1c-7.66,-0.13 -7.35,-0.6 -8.86,1.8 -3.04,1.79 -34.19,71.96 -35.34,74.63 -8.17,19.03 -29.06,60.7 -34.74,76.27 4.33,1.66 26.24,-1.78 46.29,10.59 20.72,12.78 25.07,24.78 30.12,28.52 1.13,3.18 6.43,8.73 8.73,11.78l61.59 77.87c2.71,5.66 29.85,39.39 35.86,47.44l34.01 43.66c1.33,1.69 0.94,1.86 2.57,2.31 1.32,3.83 31.97,42.9 36.1,46.88l16.19 20.19c2.76,3.09 15.22,15.49 18.71,16.92 3.85,5.24 16.46,12.26 24.14,16 9.43,4.58 19.29,8.24 30.2,10.31zm-735.9 2.36c18.83,1.29 43.23,-0.08 62.72,-0.07 20.07,0.01 40.45,0.89 59.18,-3.57 32.77,-7.79 60.07,-30.72 74.68,-51.61 12.07,-17.26 31.54,-63.47 41.43,-85.66l59.34 -132.2c6.52,-14.64 13.08,-29.26 19.88,-43.68 6.83,-14.47 12.87,-29.27 19.66,-43.91 6.85,-14.77 13.03,-28.98 19.72,-43.83 13.15,-29.19 26.24,-58.69 39.58,-87.54l39.65 -88.51c-20.67,-0.61 -42.12,-0.14 -62.86,-0.09 -21.76,0.06 -37.5,-0.15 -57.35,5.56 -30.82,8.87 -56.16,27.06 -75.82,50.59 -16.57,19.84 -30.48,57.02 -42.98,84.1 -13.63,29.53 -26.02,60.06 -39.69,88.28 -12.65,26.14 -26.9,60.66 -39.31,87.81 -6.77,14.82 -12.96,29.05 -19.71,43.85 -6.55,14.36 -12.62,29.89 -19.57,43.99 -14.03,28.47 -25.54,58.86 -39.23,87.91 -7.16,15.21 -12.62,29.65 -19.67,43.9l-19.65 44.66z"/>
      </g>
    </g>
  </g>
</svg>
