<?xml version="1.0" encoding="UTF-8"?>
<!DOCTYPE svg PUBLIC "-//W3C//DTD SVG 1.1//EN" "http://www.w3.org/Graphics/SVG/1.1/DTD/svg11.dtd">
<svg xmlns="http://www.w3.org/2000/svg" version="1.1"
     xml:space="preserve"
     width="59.2291mm" height="24.5721mm"
     style="shape-rendering:geometricPrecision; text-rendering:geometricPrecision; image-rendering:optimizeQuality; fill-rule:evenodd; clip-rule:evenodd"
     viewBox="0 0 1968.08 816.49"
     xmlns:xlink="http://www.w3.org/1999/xlink"
>
  <defs>
  <style type="text/css">
   <![CDATA[
    .fil0 {fill:#434242}
    .fil1 {fill:#434242;fill-rule:nonzero}
   ]]>
  </style>
 </defs>
 <g id="logo">
  <g id="tod_registrar">
   <g id="sign" aria-label="R">
    <path class="fil0" d="M735.9 810.96c7.17,3.81 37.52,2.85 48,2.72l123.13 -0.47c-0.88,-3.6 -0.81,-1.05 -5.69,-7.65l-66.55 -85.27c-7.91,-10.24 -16.33,-20.63 -23.94,-30.74l-18.67 -24.21c-3.19,-4.34 -6.24,-8 -9.58,-12.12 -1.09,-1.35 -1.17,-1.58 -2.14,-2.88l-8.12 -9.15c-2.79,-2.6 -6.07,-7.52 -9,-11.26 -3.33,-4.24 -6.04,-7.74 -9.45,-12.24 -3.32,-4.38 -15.73,-21.62 -19.48,-23.79 -0.1,-0.47 -31.26,-43.15 -35.88,-45.81l-28.98 -38.03c-0.98,-0.91 -0.44,-0.46 -1.61,-1.26 -1.48,-5.52 -27.33,-32.49 -28.42,-38.54 6.69,-0.59 30.78,-5.44 34.15,-8.16 28.84,-6.6 65.83,-37.24 84.17,-59.81 20.67,-25.44 38.24,-57.56 49.56,-94.12 19.25,-62.18 20.42,-152.89 -11.61,-213.67l-9.6 -17.13c-1.65,-2.5 -2.01,-3.66 -4.34,-5.26 -0.56,-2.51 -2.6,-4.72 -4.66,-7.47 -3.88,-5.19 -13.8,-17.62 -18.26,-19.73 -3.79,-6.72 -38.39,-29.87 -52.03,-33.03 -6.1,-5.73 -44.39,-11.08 -56.66,-11.37 -22.47,-0.53 -46.28,-0.61 -68.74,-0.16l-197.88 -0.13c-41.71,0.46 -83.58,-0.16 -125.32,0.03 -43.75,0.2 -70.36,1.58 -106.18,19.15 -28.93,14.2 -54.3,34.22 -71.04,54.56 -4.75,5.77 -8.97,10.83 -13.62,17.25 -10.19,14.05 -30.39,44.87 -34.52,60.57 -1.49,2.38 -0.56,0.98 0.1,1.95 26.69,1.1 56.34,0.02 83.34,-0.07l406.05 -0.32 0.19 0 0.02 0 0.2 0.01 0.2 0 0.2 0 0.2 0.01 0.05 0 0.15 0 0.2 0 0.2 0 0.2 0 0.11 0 0.09 0 0.2 0 0.2 0 0.2 0 0.18 0 0.03 0 0.2 0 0.2 0 0.2 0 0.2 0 0.04 0 0.17 0 0.2 0 0.2 0 0.2 0 0.1 0 0.1 0 0.2 0 0.2 0 0.2 0 0.16 0 0.03 0 0.2 0 0.2 0 0.2 0 0.2 0 0.03 0 0.17 0 0.19 0 0.2 0 0.2 0 0.09 0 0.1 0 0.2 0 0.19 -0 0.19 0 0.15 0 0.04 0 0.19 0 0.19 -0 0.19 0 0.38 -0 0.19 -0 0.19 0 0.19 -0 0.08 0 0.11 -0 0.19 0 0.19 -0 0.19 -0 0.14 0 0.05 0 0.19 -0 0.18 -0 0.19 -0 0.18 -0 0.01 0 0.18 -0 0.18 -0.01 0.18 0 0.18 -0.01 0.06 0 0.12 -0 0.18 -0 0.18 -0.01 0.02 0 0.66 0c21.42,-0.04 60.95,-2.27 78.18,5.67 17.61,8.12 32.39,24.83 33.69,50.27 0.12,24.51 2.47,49.52 -6.79,70.12 -7.74,17.21 -20.26,30.56 -37.4,38.36 -22.28,10.13 -41.04,8.17 -66.85,8.19l-66.01 -0.1c-7.66,-0.13 -7.35,-0.6 -8.86,1.8 -3.04,1.79 -34.19,71.96 -35.34,74.63 -8.17,19.03 -29.06,60.7 -34.74,76.27 4.33,1.66 26.24,-1.78 46.29,10.59 20.72,12.78 25.07,24.78 30.12,28.52 1.13,3.18 6.43,8.73 8.73,11.78l61.59 77.87c2.71,5.66 29.85,39.39 35.86,47.44l34.01 43.66c1.33,1.69 0.94,1.86 2.57,2.31 1.32,3.83 31.97,42.9 36.1,46.88l16.19 20.19c2.76,3.09 15.22,15.49 18.71,16.92 3.85,5.24 16.46,12.26 24.14,16 9.43,4.58 19.29,8.24 30.2,10.31zm-735.9 2.36c18.83,1.29 43.23,-0.08 62.72,-0.07 20.07,0.01 40.45,0.89 59.18,-3.57 32.77,-7.79 60.07,-30.72 74.68,-51.61 12.07,-17.26 31.54,-63.47 41.43,-85.66l59.34 -132.2c6.52,-14.64 13.08,-29.26 19.88,-43.68 6.83,-14.47 12.87,-29.27 19.66,-43.91 6.85,-14.77 13.03,-28.98 19.72,-43.83 13.15,-29.19 26.24,-58.69 39.58,-87.54l39.65 -88.51c-20.67,-0.61 -42.12,-0.14 -62.86,-0.09 -21.76,0.06 -37.5,-0.15 -57.35,5.56 -30.82,8.87 -56.16,27.06 -75.82,50.59 -16.57,19.84 -30.48,57.02 -42.98,84.1 -13.63,29.53 -26.02,60.06 -39.69,88.28 -12.65,26.14 -26.9,60.66 -39.31,87.81 -6.77,14.82 -12.96,29.05 -19.71,43.85 -6.55,14.36 -12.62,29.89 -19.57,43.99 -14.03,28.47 -25.54,58.86 -39.23,87.91 -7.16,15.21 -12.62,29.65 -19.67,43.9l-19.65 44.66z"/>
   </g>
   <g id="name" aria-label="TODO registrar">
    <path class="fil1" d="M1005.14 813.95l0 -118.42 49.9 0c5.98,0 11.87,0.62 17.68,1.86 5.81,1.24 11,3.38 15.56,6.43 4.57,3.04 8.26,7.13 11.08,12.26 2.82,5.13 4.23,11.59 4.23,19.37 0,4.96 -0.56,9.33 -1.69,13.11 -1.13,3.78 -2.71,7.1 -4.74,9.98 -2.03,2.87 -4.43,5.33 -7.19,7.36 -2.76,2.03 -5.78,3.72 -9.05,5.07l32.65 42.97 -35.35 0 -28.25 -38.57 -13.53 0 0 38.57 -31.3 0zm31.3 -63.94l19.96 0c4.51,0 8.15,-1.13 10.92,-3.38 2.76,-2.26 4.14,-5.7 4.14,-10.32 0,-4.63 -1.38,-8.06 -4.14,-10.32 -2.76,-2.26 -6.4,-3.38 -10.92,-3.38l-19.96 0 0 27.4zm174.24 -54.47l0 27.07 -53.96 0 0 18.1 48.89 0 0 26.9 -48.89 0 0 19.29 54.98 0 0 27.06 -86.28 0 0 -118.42 85.26 0zm12.01 59.21c0,-11.06 1.86,-20.47 5.58,-28.25 3.72,-7.78 8.63,-14.16 14.72,-19.12 6.09,-4.96 13.06,-8.6 20.89,-10.91 7.84,-2.31 15.87,-3.47 24.1,-3.47 6.43,0 12.75,0.65 18.95,1.95 6.2,1.29 12.12,3.13 17.76,5.5l0 29.6c-4.4,-3.05 -9.45,-5.39 -15.14,-7.02 -5.7,-1.63 -11.53,-2.45 -17.51,-2.45 -4.74,0 -9.36,0.65 -13.87,1.94 -4.51,1.3 -8.49,3.3 -11.93,6 -3.44,2.71 -6.2,6.23 -8.29,10.57 -2.09,4.34 -3.13,9.56 -3.13,15.65 0,7.33 1.19,13.25 3.55,17.76 2.37,4.51 5.33,8.04 8.88,10.57 3.55,2.54 7.36,4.26 11.42,5.16 4.06,0.9 7.78,1.35 11.16,1.35 3.16,0 5.86,-0.28 8.12,-0.84l0 -39.93 29.6 0 0 59.72c-6.09,2.6 -12.46,4.57 -19.11,5.92 -6.66,1.35 -13.36,2.03 -20.13,2.03 -8.46,0 -16.63,-1.21 -24.53,-3.64 -7.89,-2.42 -14.89,-6.14 -20.97,-11.16 -6.09,-5.02 -10.97,-11.42 -14.64,-19.2 -3.66,-7.78 -5.5,-17.03 -5.5,-27.74zm155.3 -59.21l0 118.42 -31.3 0 0 -118.42 31.3 0zm18.1 32.31c0,-5.86 1.19,-11 3.56,-15.39 2.37,-4.4 5.58,-8.03 9.64,-10.91 4.06,-2.87 8.8,-5.02 14.21,-6.43 5.41,-1.41 11.16,-2.11 17.26,-2.11 7.44,0 14.63,0.85 21.57,2.54 6.93,1.69 13,4 18.19,6.93l0 28.76c-5.08,-3.83 -10.83,-6.68 -17.26,-8.54 -6.43,-1.86 -13.08,-2.73 -19.96,-2.62 -5.75,0.11 -9.7,0.84 -11.84,2.2 -2.14,1.36 -3.21,3.16 -3.21,5.42 0,2.59 1.53,4.71 4.57,6.34 3.04,1.63 6.85,3.24 11.42,4.82 4.57,1.58 9.5,3.3 14.8,5.16 5.3,1.86 10.23,4.31 14.8,7.36 4.57,3.04 8.37,6.88 11.42,11.51 3.04,4.62 4.57,10.43 4.57,17.42 0,6.99 -1.24,12.83 -3.72,17.51 -2.48,4.68 -5.89,8.4 -10.23,11.16 -4.34,2.76 -9.39,4.71 -15.14,5.84 -5.75,1.13 -11.84,1.69 -18.27,1.69 -8.57,0 -16.72,-0.93 -24.45,-2.79 -7.73,-1.86 -14.74,-4.54 -21.06,-8.03l0 -29.6c7.1,4.85 14.38,8.29 21.82,10.32 7.45,2.03 14.55,3.04 21.32,3.04 6.2,0 10.69,-0.59 13.45,-1.77 2.76,-1.19 4.15,-3.24 4.15,-6.18 0,-2.82 -1.52,-5.13 -4.57,-6.93 -3.05,-1.8 -6.85,-3.53 -11.42,-5.16 -4.57,-1.63 -9.5,-3.38 -14.8,-5.24 -5.3,-1.86 -10.23,-4.31 -14.8,-7.36 -4.57,-3.04 -8.37,-6.85 -11.42,-11.42 -3.05,-4.57 -4.57,-10.4 -4.57,-17.51zm196.24 -32.31l0 27.91 -33.33 0 0 90.5 -31.29 0 0 -90.5 -33.5 0 0 -27.91 98.12 0zm13.36 118.42l0 -118.42 49.9 0c5.98,0 11.87,0.62 17.68,1.86 5.81,1.24 11,3.38 15.56,6.43 4.57,3.04 8.26,7.13 11.08,12.26 2.82,5.13 4.23,11.59 4.23,19.37 0,4.96 -0.56,9.33 -1.69,13.11 -1.13,3.78 -2.71,7.1 -4.74,9.98 -2.03,2.87 -4.43,5.33 -7.19,7.36 -2.76,2.03 -5.78,3.72 -9.05,5.07l32.65 42.97 -35.35 0 -28.25 -38.57 -13.53 0 0 38.57 -31.29 0zm31.29 -63.94l19.96 0c4.51,0 8.15,-1.13 10.91,-3.38 2.76,-2.26 4.14,-5.7 4.14,-10.32 0,-4.63 -1.38,-8.06 -4.14,-10.32 -2.76,-2.26 -6.4,-3.38 -10.91,-3.38l-19.96 0 0 27.4zm77.98 63.94l46.52 -118.42 33.83 0 46.52 118.42 -32.14 0 -6.77 -18.61 -49.06 0 -6.77 18.61 -32.14 0zm48.21 -43.98l30.45 0 -12.18 -34.17c-0.56,-1.47 -1.07,-3.05 -1.52,-4.74 -0.46,-1.69 -0.96,-4.12 -1.53,-7.27 -0.56,3.16 -1.07,5.58 -1.52,7.27 -0.45,1.69 -0.96,3.27 -1.53,4.74l-12.18 34.17zm90 43.98l0 -118.42 49.9 0c5.98,0 11.87,0.62 17.68,1.86 5.81,1.24 11,3.38 15.56,6.43 4.57,3.04 8.26,7.13 11.08,12.26 2.82,5.13 4.23,11.59 4.23,19.37 0,4.96 -0.56,9.33 -1.69,13.11 -1.13,3.78 -2.71,7.1 -4.74,9.98 -2.03,2.87 -4.43,5.33 -7.19,7.36 -2.76,2.03 -5.78,3.72 -9.05,5.07l32.65 42.97 -35.35 0 -28.25 -38.57 -13.53 0 0 38.57 -31.29 0zm31.29 -63.94l19.96 0c4.51,0 8.15,-1.13 10.91,-3.38 2.76,-2.26 4.14,-5.7 4.14,-10.32 0,-4.63 -1.38,-8.06 -4.14,-10.32 -2.76,-2.26 -6.4,-3.38 -10.91,-3.38l-19.96 0 0 27.4z"/>
    <path class="fil1" d="M921.67 69.53l0 -69.53 236.62 0.48 0 69.05 -83.47 0 0 556.86 -69.69 0 0 -556.86 -83.47 0zm385.18 0l-23.28 0c-23.12,0 -34.68,11.72 -34.68,34.84l0 417.65c0,23.12 11.56,34.68 34.68,34.68l23.28 0c23.12,0 34.68,-11.56 34.68,-34.68l0 -417.65c0,-23.12 -11.56,-34.84 -34.68,-34.84zm104.37 429.21c0,85.05 -30.89,127.65 -92.81,127.65l-46.41 0c-61.93,0 -92.81,-42.61 -92.81,-127.65l0 -371.08c0,-85.21 30.88,-127.65 92.81,-127.65l46.41 0c61.92,0 92.81,42.44 92.81,127.65l0 371.08zm174.06 57.97c23.12,0 34.68,-11.56 34.68,-34.68l0 -417.65c0,-23.12 -11.4,-34.84 -34.21,-34.84l-58.44 0 0 487.17 57.97 0zm104.37 -57.97c0,85.05 -30.89,127.65 -92.81,127.65l-139.22 0 0 -626.39 139.22 0c61.92,0 92.81,42.44 92.81,127.65l0 371.08zm174.06 -429.21l-23.28 0c-23.12,0 -34.68,11.72 -34.68,34.84l0 417.65c0,23.12 11.56,34.68 34.68,34.68l23.28 0c23.12,0 34.68,-11.56 34.68,-34.68l0 -417.65c0,-23.12 -11.56,-34.84 -34.68,-34.84zm104.37 429.21c0,85.05 -30.89,127.65 -92.81,127.65l-46.41 0c-61.93,0 -92.81,-42.61 -92.81,-127.65l0 -371.08c0,-85.21 30.88,-127.65 92.81,-127.65l46.41 0c61.92,0 92.81,42.44 92.81,127.65l0 371.08z"/>
   </g>
  </g>
 </g>
</svg>
